Coordinates
version=1
nRows=32
nColumns=12
inDegrees=yes

Units are S.I. units (second, meters, Newtons, ...)
Angles are in degrees

endheader
time	SC_y	SC_z	SC_x	AC_y	AC_z	AC_x	GH_y	GH_z	GH_yy	EL_x	PS_y
       0.0              -31.34          2.298          18.76          67.99         -9.682         -16.07          101.3          7.763         -133.2          70.05          43.65
   0.04741              -31.35          2.298          18.76          67.98          -9.68         -16.07          101.3          7.772         -133.1          70.05          43.65
   0.09483              -31.35          2.298          18.76          67.98         -9.679         -16.07          101.3          7.782         -133.1          70.05          43.65
    0.1422              -31.35          2.297          18.76          67.98         -9.677         -16.06          101.3          7.792         -133.1          70.04          43.65
    0.1897              -31.35          2.297          18.76          67.97         -9.675         -16.06          101.3          7.804         -133.0          70.04          43.65
    0.2371              -31.35          2.296          18.76          67.97         -9.673         -16.06          101.3          7.816         -133.0          70.04          43.65
    0.2845              -31.36          2.296          18.76          67.97         -9.671         -16.06          101.3          7.828         -132.9          70.04          43.65
    0.3319              -31.36          2.296          18.76          67.97         -9.669         -16.06          101.3          7.842         -132.9          70.03          43.65
    0.3793              -31.36          2.295          18.76          67.96         -9.667         -16.05          101.3          7.857         -132.8          70.03          43.65
    0.4267              -31.36          2.295          18.77          67.96         -9.664         -16.05          101.2          7.872         -132.8          70.03          43.64
    0.4741              -31.37          2.294          18.77          67.95         -9.662         -16.05          101.2          7.889         -132.7          70.02          43.64
    0.5216              -31.37          2.294          18.77          67.95         -9.659         -16.05          101.2          7.907         -132.7          70.02          43.64
     0.569              -31.37          2.293          18.77          67.94         -9.656         -16.04          101.2          7.927         -132.6          70.02          43.64
    0.6164              -31.37          2.292          18.77          67.94         -9.652         -16.04          101.2          7.948         -132.5          70.01          43.64
    0.6638              -31.38          2.291          18.77          67.93         -9.649         -16.04          101.2          7.971         -132.4          70.01          43.64
    0.7112              -31.38          2.291          18.77          67.93         -9.645         -16.03          101.2          7.996         -132.3           70.0          43.64
    0.7586              -31.39           2.29          18.77          67.92         -9.641         -16.03          101.2          8.023         -132.3           70.0          43.64
    0.8061              -31.39          2.289          18.78          67.91         -9.636         -16.03          101.2          8.052         -132.2          69.99          43.64
    0.8535               -31.4          2.288          18.78           67.9         -9.631         -16.02          101.2          8.084         -132.0          69.99          43.63
    0.9009               -31.4          2.287          18.78           67.9         -9.625         -16.02          101.2          8.119         -131.9          69.98          43.63
    0.9483              -31.41          2.286          18.78          67.89         -9.619         -16.01          101.2          8.158         -131.8          69.97          43.63
    0.9957              -31.42          2.284          18.79          67.88         -9.613          -16.0          101.2            8.2         -131.6          69.96          43.63
     1.043              -31.42          2.283          18.79          67.86         -9.605          -16.0          101.2          8.247         -131.5          69.96          43.63
     1.091              -31.43          2.281          18.79          67.85         -9.597         -15.99          101.2          8.299         -131.3          69.95          43.62
     1.138              -31.44          2.279           18.8          67.84         -9.588         -15.98          101.2          8.356         -131.1          69.93          43.62
     1.185              -31.45          2.277           18.8          67.82         -9.578         -15.97          101.2          8.421         -130.9          69.92          43.62
     1.233              -31.46          2.275          18.81           67.8         -9.566         -15.96          101.2          8.493         -130.6          69.91          43.61
      1.28              -31.48          2.272          18.81          67.78         -9.554         -15.95          101.2          8.574         -130.3          69.89          43.61
     1.328              -31.49          2.269          18.82          67.76         -9.539         -15.93          101.2          8.666         -130.0          69.87           43.6
     1.375              -31.51          2.266          18.82          67.73         -9.523         -15.92          101.1           8.77         -129.7          69.85           43.6
     1.422              -31.53          2.262          18.83           67.7         -9.504          -15.9          101.1          8.888         -129.2          69.83          43.59
      1.47              -31.55          2.258          18.84          67.67         -9.482         -15.88          101.1          9.025         -128.8           69.8          43.59
